<?xml version="1.0" standalone="no"?><!DOCTYPE svg PUBLIC "-//W3C//DTD SVG 1.1//EN" "http://www.w3.org/Graphics/SVG/1.1/DTD/svg11.dtd"><svg t="1699120494466" class="icon" viewBox="0 0 1024 1024" version="1.1" xmlns="http://www.w3.org/2000/svg" p-id="1714" xmlns:xlink="http://www.w3.org/1999/xlink" width="32" height="32"><path d="M217.301333 414.933333a21.333333 21.333333 0 0 1-1.066666-30.165333l29.098666-31.232a21.333333 21.333333 0 0 1 30.165334-1.024l236.117333 220.16 236.16-220.16a21.333333 21.333333 0 0 1 30.122667 1.024l29.098666 31.232a21.333333 21.333333 0 0 1-1.024 30.165333L541.738667 661.333333l-13.44 14.421334a21.290667 21.290667 0 0 1-16.725334 6.741333 21.290667 21.290667 0 0 1-16.64-6.741333l-13.44-14.506667z" opacity=".65" p-id="1715"></path></svg>