<?xml version="1.0" standalone="no"?><!DOCTYPE svg PUBLIC "-//W3C//DTD SVG 1.1//EN" "http://www.w3.org/Graphics/SVG/1.1/DTD/svg11.dtd"><svg t="1702304402355" class="icon" viewBox="0 0 1024 1024" version="1.1" xmlns="http://www.w3.org/2000/svg" p-id="4247" xmlns:xlink="http://www.w3.org/1999/xlink"><path d="M853.333333 128h-42.666666V85.333333c0-21.333333-21.333333-42.666667-42.666667-42.666666s-42.666667 21.333333-42.666667 42.666666v42.666667H298.666667V85.333333c0-21.333333-17.066667-42.666667-42.666667-42.666666s-42.666667 21.333333-42.666667 42.666666v42.666667H170.666667c-46.933333 0-85.333333 38.4-85.333334 85.333333v682.666667c0 46.933333 38.4 85.333333 85.333334 85.333333h682.666666c46.933333 0 85.333333-38.4 85.333334-85.333333V213.333333c0-46.933333-38.4-85.333333-85.333334-85.333333z m-42.666666 768H213.333333c-25.6 0-42.666667-21.333333-42.666666-42.666667V341.333333h682.666666v512c0 21.333333-21.333333 42.666667-42.666666 42.666667z" p-id="4248"></path></svg>