<?xml version="1.0" standalone="no"?><!DOCTYPE svg PUBLIC "-//W3C//DTD SVG 1.1//EN" "http://www.w3.org/Graphics/SVG/1.1/DTD/svg11.dtd"><svg t="1702187438652" class="icon" viewBox="0 0 1024 1024" version="1.1" xmlns="http://www.w3.org/2000/svg" p-id="4329" xmlns:xlink="http://www.w3.org/1999/xlink"><path d="M953.37931 750.344828 953.37931 955.799075C953.37931 954.531046 954.526084 953.37931 955.872185 953.37931L68.127815 953.37931C69.453824 953.37931 70.62069 954.54374 70.62069 955.872185L70.62069 68.127815C70.62069 69.524268 69.521743 70.62069 68.200925 70.62069L273.655172 70.62069 333.241379 70.62069C352.742735 70.62069 368.551724 54.811701 368.551724 35.310345 368.551724 15.808989 352.742735 0 333.241379 0L273.655172 0 68.200925 0C30.555489 0 0 30.484974 0 68.127815L0 955.872185C0 993.57952 30.484056 1024 68.127815 1024L955.872185 1024C993.597175 1024 1024 993.46575 1024 955.799075L1024 750.344828 1024 690.758621C1024 671.257265 1008.191011 655.448276 988.689655 655.448276 969.188299 655.448276 953.37931 671.257265 953.37931 690.758621L953.37931 750.344828 953.37931 750.344828ZM953.37931 125.57591 953.37931 512C953.37931 531.501356 969.188299 547.310345 988.689655 547.310345 1008.191011 547.310345 1024 531.501356 1024 512L1024 68.075149C1024 30.576605 993.500407 0 955.924851 0L512 0C492.498644 0 476.689655 15.808989 476.689655 35.310345 476.689655 54.811701 492.498644 70.62069 512 70.62069L908.461798 70.62069 451.721463 527.361024C437.931926 541.150561 437.931926 563.507836 451.721463 577.29739 465.511018 591.086927 487.868292 591.086927 501.657847 577.29739L953.37931 125.57591 953.37931 125.57591Z" p-id="4330"></path></svg>
